<svg width="79" height="79" viewBox="0 0 79 79" fill="none" xmlns="http://www.w3.org/2000/svg">
<path d="M31.7836 35.6417C32.291 35.6417 32.7934 35.5418 33.2621 35.3476C33.7309 35.1534 34.1568 34.8688 34.5156 34.5101C34.8743 34.1513 35.1589 33.7254 35.3531 33.2566C35.5473 32.7879 35.6472 32.2855 35.6472 31.7781C35.6472 31.2708 35.5473 30.7683 35.3531 30.2996C35.1589 29.8308 34.8743 29.4049 34.5156 29.0462C34.1568 28.6874 33.7309 28.4028 33.2621 28.2086C32.7934 28.0145 32.291 27.9146 31.7836 27.9146C30.7589 27.9146 29.7762 28.3216 29.0517 29.0462C28.3271 29.7707 27.92 30.7534 27.92 31.7781C27.92 32.8028 28.3271 33.7855 29.0517 34.5101C29.7762 35.2346 30.7589 35.6417 31.7836 35.6417Z" fill="white"/>
<path fill-rule="evenodd" clip-rule="evenodd" d="M12.484 52.3922V78.125H49.2034V64.1513H58.4155C58.9906 64.1513 59.5399 64.0376 60.0399 63.8337L54.9328 59.8597H44.9118V73.8333H16.7735V50.6626L15.5718 49.4159C12.0526 45.7572 5.16667 37.2061 5.16667 26.5714C5.16667 23.0736 6.48635 17.7155 10.4583 13.2886C13.9624 9.38108 19.842 5.85333 29.6356 5.25679V20.3849C27.9422 20.7058 26.3417 21.4005 24.9508 22.4182C23.5598 23.4359 22.4134 24.7512 21.595 26.268C20.7767 27.7849 20.3071 29.4652 20.2203 31.1866C20.1336 32.9079 20.4319 34.627 21.0936 36.2184C21.7553 37.8099 22.7637 39.2337 24.0453 40.3861C25.3269 41.5385 26.8494 42.3905 28.502 42.8801C30.1545 43.3696 31.8955 43.4843 33.598 43.2159C35.3005 42.9474 36.9217 42.3025 38.3434 41.3282L68.5352 64.7672C68.3492 65.84 68.5313 66.9441 69.0519 67.9004C69.5725 68.8567 70.401 69.6089 71.4029 70.035C72.4049 70.4611 73.5215 70.5361 74.5714 70.2476C75.6213 69.9592 76.5429 69.3244 77.1865 68.4462C77.8302 67.5681 78.1581 66.4981 78.1171 65.4101C78.0761 64.3221 77.6685 63.2799 76.9606 62.4526C76.2526 61.6254 75.2858 61.0618 74.2172 60.8533C73.1486 60.6447 72.0408 60.8035 71.0738 61.3038L41.3883 38.2554C42.4625 36.6634 43.1244 34.8295 43.3144 32.9184C43.5043 31.0073 43.2165 29.0789 42.4767 27.3066C41.7369 25.5342 40.5684 23.9735 39.0761 22.7646C37.5838 21.5557 35.8145 20.7365 33.9273 20.3806V5.18169C39.3841 5.28254 43.1651 6.01427 46.0255 7.08719C49.0554 8.22448 51.3021 9.83171 53.5659 11.9303L53.8706 12.2136C56.0894 14.2693 56.7503 14.883 57.1259 15.883L66.2092 40.0665H58.4155V46.2637L62.7072 49.6004V44.3582H66.2092C66.9027 44.3591 67.5861 44.1918 68.2008 43.8706C68.8155 43.5494 69.3431 43.0838 69.7383 42.5139C70.1335 41.944 70.3845 41.2867 70.4699 40.5984C70.5552 39.9102 70.4723 39.2115 70.2283 38.5623L61.1429 14.3723C60.394 12.3767 58.9455 11.0462 57.1216 9.3725C56.9087 9.17703 56.6962 8.98104 56.4843 8.78454C51.4094 4.07658 45.6349 0.875 32.629 0.875C7.32537 0.875 0.875 17.7734 0.875 26.5714C0.875 38.9464 8.7781 48.5468 12.484 52.3922V52.3922ZM31.7814 39.0708C32.7395 39.071 33.6883 38.8824 34.5735 38.5159C35.4587 38.1494 36.2631 37.6121 36.9407 36.9347C37.6183 36.2573 38.1558 35.4531 38.5226 34.568C38.8893 33.6829 39.0782 32.7342 39.0783 31.7761C39.0785 30.818 38.8899 29.8692 38.5234 28.984C38.1569 28.0988 37.6196 27.2944 36.9422 26.6168C36.2648 25.9392 35.4606 25.4017 34.5755 25.0349C33.6904 24.6682 32.7417 24.4793 31.7836 24.4792C29.8486 24.4792 27.9929 25.2478 26.6246 26.6161C25.2564 27.9843 24.4877 29.84 24.4877 31.775C24.4877 33.71 25.2564 35.5657 26.6246 36.9339C27.9929 38.3022 29.8486 39.0708 31.7836 39.0708H31.7814Z" fill="white"/>
</svg>
