<svg width="30" height="34" viewBox="0 0 30 34" fill="none" xmlns="http://www.w3.org/2000/svg">
<path d="M14.875 2.42857C13.4411 2.42857 12.0394 2.78465 10.8471 3.45179C9.65486 4.11893 8.72561 5.06716 8.17687 6.17656C7.62814 7.28597 7.48456 8.50673 7.76431 9.68448C8.04405 10.8622 8.73454 11.944 9.74848 12.7931C10.7624 13.6423 12.0542 14.2205 13.4606 14.4548C14.867 14.689 16.3247 14.5688 17.6495 14.1093C18.9742 13.6497 20.1065 12.8715 20.9032 11.8731C21.6998 10.8747 22.125 9.70082 22.125 8.5C22.125 6.88976 21.3612 5.34547 20.0015 4.20685C18.6419 3.06824 16.7978 2.42857 14.875 2.42857ZM14.875 0C16.8825 0 18.8449 0.498516 20.514 1.43251C22.1832 2.3665 23.4841 3.69402 24.2524 5.24719C25.0206 6.80036 25.2216 8.50943 24.83 10.1583C24.4383 11.8071 23.4716 13.3217 22.0521 14.5104C20.6326 15.6992 18.8241 16.5087 16.8552 16.8367C14.8863 17.1646 12.8454 16.9963 10.9908 16.353C9.13609 15.7096 7.55088 14.6202 6.43558 13.2223C5.32029 11.8245 4.725 10.1811 4.725 8.5C4.725 6.24566 5.79437 4.08365 7.69787 2.48959C9.60136 0.895533 12.1831 0 14.875 0ZM0.375 34H3.275V27.9286C3.275 27.1313 3.46252 26.3418 3.82687 25.6051C4.19122 24.8685 4.72525 24.1992 5.39848 23.6354C6.0717 23.0716 6.87093 22.6244 7.75054 22.3193C8.63015 22.0142 9.57292 21.8571 10.525 21.8571H19.225C21.1478 21.8571 22.9919 22.4968 24.3515 23.6354C25.7112 24.774 26.475 26.3183 26.475 27.9286V34H29.375V27.9286C29.375 25.6742 28.3056 23.5122 26.4021 21.9182C24.4986 20.3241 21.9169 19.4286 19.225 19.4286H10.525C7.83305 19.4286 5.25136 20.3241 3.34787 21.9182C1.44437 23.5122 0.375 25.6742 0.375 27.9286V34Z" fill="black"/>
</svg>
