<svg width="11" height="18" viewBox="0 0 11 18" fill="none" xmlns="http://www.w3.org/2000/svg">
<path d="M0.965003 1.06467C0.825948 1.20344 0.715626 1.36827 0.640354 1.54973C0.565082 1.73119 0.526337 1.92571 0.526337 2.12217C0.526337 2.31862 0.565082 2.51314 0.640354 2.6946C0.715626 2.87606 0.825948 3.0409 0.965003 3.17967L6.785 8.99967L0.965003 14.8197C0.684537 15.1001 0.526972 15.4805 0.526972 15.8772C0.526972 16.2738 0.684537 16.6542 0.965003 16.9347C1.24547 17.2151 1.62586 17.3727 2.0225 17.3727C2.41914 17.3727 2.79954 17.2151 3.08 16.9347L9.965 10.0497C10.1041 9.9109 10.2144 9.74606 10.2896 9.5646C10.3649 9.38314 10.4037 9.18862 10.4037 8.99217C10.4037 8.79571 10.3649 8.60119 10.2896 8.41973C10.2144 8.23827 10.1041 8.07344 9.965 7.93467L3.08 1.04967C2.51 0.479667 1.55 0.479667 0.965003 1.06467Z" fill="black"/>
</svg>
