<svg width="54" height="76" viewBox="0 0 54 76" fill="none" xmlns="http://www.w3.org/2000/svg">
<path d="M7.43205 0L10.3187 2.6448L9.531 3.63153L12.4118 6.28013L13.203 5.2896L42.0543 31.7389L41.2208 32.7813L44.0828 36.6003L39.4036 42.4473L35.451 40.0039L34.6175 41.0476L27.9309 34.9182C26.8723 36.0735 25.5847 36.9548 24.165 37.4959C23.7882 37.639 23.4031 37.7492 23.0157 37.8417C22.7657 40.755 22.7246 43.8609 23.1672 46.8464C23.8443 46.729 24.5287 46.6668 25.2145 46.6602C31.3059 46.7096 36.4606 51.0099 38.1968 56.9367L38.2038 56.9633L39.7675 61.8121L41.2619 60.2021C46.7065 54.3349 45.3365 49.8041 44.3704 47.9725L40.4789 52.1677L37.1673 48.5982L50.6966 34.0353L54 37.5972L49.7833 42.142C51.6005 44.9363 56.4453 54.2108 47.9309 63.3853L42.2491 69.5096L44.3422 76H6.09144L12.2287 56.9658L12.2369 56.9392C12.9228 54.6138 14.1371 52.5106 15.7692 50.8212C14.2771 45.8508 14.276 40.6017 14.8629 35.9404C13.3071 34.6897 12.1281 32.9712 11.4738 31.0004C11.0382 29.681 10.8498 28.2814 10.9195 26.8828C10.9893 25.4843 11.3157 24.1145 11.88 22.8532C12.1541 22.2372 12.4811 21.6503 12.8567 21.1001L5.77096 14.6047L6.55748 13.6205L3.6767 10.9681L2.88431 11.9599L1.90735e-06 9.31253L7.43205 0ZM39.0209 40.0203L41.7878 36.5611L40.3298 34.6142L37.0076 38.7777L39.0209 40.0203ZM50.6954 35.8251L38.8283 48.5982L39.9295 49.7851L51.7989 37.0171L50.6954 35.8251M25.2145 69.4817C29.4206 69.4817 32.8261 65.835 32.8261 61.332C32.8261 56.829 29.4206 53.1797 25.2145 53.1797C21.0119 53.1797 17.604 56.829 17.604 61.332C17.604 65.835 21.0119 69.4817 25.2145 69.4817ZM13.6855 30.153C14.7819 33.4957 17.7073 35.5807 20.8358 35.5807C21.681 35.5807 22.5403 35.4287 23.3832 35.1082C27.3487 33.5971 29.4323 28.9357 28.0413 24.6899C26.946 21.3497 24.0241 19.2635 20.8968 19.2622C20.0504 19.2622 19.1888 19.4155 18.3447 19.7372C14.3816 21.2433 12.2967 25.9122 13.6855 30.153ZM7.70557 12.1777L11.2613 7.72033L8.38057 5.07047L4.82361 9.5266L7.70557 12.1777" fill="#7C41B8"/>
<path d="M17.2759 28.7964C16.5799 26.6735 17.6225 24.3391 19.6046 23.5825C21.5868 22.8259 23.7579 23.9335 24.454 26.0564C25.15 28.1794 24.1074 30.5138 22.1252 31.2704C20.143 32.027 17.9719 30.9194 17.2759 28.7964Z" fill="#7C41B8"/>
<path d="M25.2149 65.4076C23.1117 65.4076 21.4067 63.5827 21.4067 61.3315C21.4067 59.0803 23.1117 57.2554 25.2149 57.2554C27.3181 57.2554 29.0231 59.0803 29.0231 61.3315C29.0231 63.5827 27.3181 65.4076 25.2149 65.4076Z" fill="#7C41B8"/>
</svg>
