<svg width="54" height="67" viewBox="0 0 54 67" fill="none" xmlns="http://www.w3.org/2000/svg">
<path fill-rule="evenodd" clip-rule="evenodd" d="M38.0249 7.70211L37.9424 7.26657C37.7849 6.45718 37.5269 5.2667 36.9944 4.09436C36.4514 2.90025 35.6099 1.6898 34.2899 0.893124C32.9744 0.100073 31.3259 -0.195733 29.2874 0.130924C27.0374 0.493877 22.5179 1.394 18.5249 3.85119C14.5094 6.32289 10.7474 10.5749 10.7474 17.6561C10.7474 21.3146 11.9174 25.24 13.0514 27.7988C13.5959 29.0292 14.2424 30.2052 14.8904 30.8385C15.0389 30.9837 15.2504 31.1652 15.5129 31.2922C16.2329 34.1551 17.6663 36.6791 19.6169 38.519C21.5676 40.359 23.9404 41.4251 26.4109 41.5717C28.8814 41.7182 31.329 40.9381 33.4191 39.3378C35.5092 37.7376 37.1398 35.3954 38.0879 32.6315L38.1239 32.6387L38.6564 31.8566L37.4984 30.7024L38.6564 31.8566L38.6579 31.853L38.6609 31.8493L38.6684 31.8366L38.6939 31.8003C38.8222 31.607 38.9458 31.4091 39.0644 31.2069C39.3883 30.6634 39.6935 30.104 39.9794 29.5301C40.6844 28.1182 41.5349 26.1074 42.0794 23.7609C42.6224 21.4144 42.8714 18.6633 42.3014 15.825C41.7464 13.0629 40.4369 10.3444 38.0654 7.91625L38.0249 7.70211V7.70211ZM35.5049 30.6371C34.8543 32.9005 33.605 34.8413 31.9505 36.1588C30.296 37.4763 28.3286 38.097 26.353 37.9249C24.3773 37.7527 22.5038 36.7972 21.0224 35.2064C19.541 33.6156 18.5346 31.4782 18.1589 29.1254L17.9894 29.1943C17.9953 29.0917 17.9983 28.9888 17.9984 28.8858C17.9984 25.8824 18.3434 23.7863 18.6644 22.4797C18.7271 22.2254 18.7966 21.9736 18.8729 21.7248L18.9344 21.7284H18.9944C20.116 21.7577 21.2373 21.6544 22.3424 21.4199C24.9179 20.8936 28.4054 19.5797 32.5124 16.5364C32.6024 16.7795 32.6924 17.0536 32.7824 17.3585C33.0764 18.3656 33.3179 19.5616 33.5264 20.8246C33.7109 21.9371 33.8624 23.0568 34.0064 24.1057L34.0619 24.5195C34.2164 25.6447 34.3709 26.7498 34.5509 27.5502C34.8659 28.9403 35.1869 29.9275 35.5049 30.6352V30.6371ZM37.6049 27.2562C38.2824 25.8492 38.8144 24.3468 39.1889 22.7828C39.6374 20.8482 39.8024 18.754 39.3854 16.6834C38.9804 14.669 38.0009 12.5512 35.9864 10.544C35.6234 10.2464 35.4584 9.84716 35.4134 9.74009V9.73827C35.3346 9.54206 35.2713 9.3373 35.2244 9.1267C35.1764 8.91981 35.1239 8.63671 35.0744 8.38265L35.0219 8.09773C34.8794 7.36638 34.6949 6.5697 34.3649 5.84198C34.0439 5.13785 33.6044 4.53535 32.9504 4.14155C32.2934 3.74411 31.2764 3.4719 29.6834 3.7296C27.5039 4.07985 23.4044 4.92008 19.8854 7.08691C16.3904 9.2374 13.7474 12.4931 13.7474 17.6561C13.7474 20.0334 14.4074 22.7374 15.2024 24.8698C15.3524 23.4796 15.5684 22.3436 15.7904 21.4435C15.9451 20.8002 16.1381 20.1712 16.3679 19.5616C16.4545 19.3356 16.5496 19.1146 16.6529 18.8992L16.6784 18.8502L16.6874 18.832L16.6919 18.823L16.6949 18.8175L17.9549 19.7975L16.6949 18.8175L17.2499 17.7758L18.2429 18.0172L18.2639 18.0227L18.4094 18.0462C18.6326 18.0763 18.8568 18.0945 19.0814 18.1007C20.0062 18.1223 20.9306 18.0348 21.8414 17.8394C24.2609 17.3458 27.8159 16.001 32.1344 12.5221L33.1844 11.6746L34.0529 12.7816C34.7684 13.6926 35.2544 14.9357 35.6099 16.1462C35.9729 17.3893 36.2474 18.7776 36.4679 20.1096C36.6507 21.2432 36.8167 22.3806 36.9659 23.5214L37.0229 23.9279C37.1834 25.1093 37.3139 26.0112 37.4459 26.5956C37.4951 26.8171 37.5481 27.0373 37.6049 27.2562V27.2562ZM16.7834 28.022L16.7774 28.0184L16.7834 28.022ZM16.7774 28.0184L16.7834 28.022L16.7789 28.0184H16.7774Z" fill="#7C41B8"/>
<path fill-rule="evenodd" clip-rule="evenodd" d="M36.129 43.1444C36.447 42.3785 36.8385 41.433 37.5 41.6163C45.606 43.8485 54 50.2927 54 57.1453V66.9994H0V57.1453C0 51.7482 5.208 46.6033 11.3805 43.5708L11.388 43.5527C11.3949 43.5363 11.4019 43.5199 11.409 43.5037L11.4585 43.5327C13.098 42.7342 14.805 42.0809 16.5 41.6163C17.2545 41.4076 18.0345 42.6635 18.375 43.4492H36C36.042 43.3549 36.084 43.2496 36.129 43.1444V43.1444ZM15.8955 45.5399C15.24 45.7594 14.5875 46.0062 13.944 46.2785C13.926 46.8991 13.965 47.6323 14.049 48.38C14.1345 49.1541 14.271 49.9187 14.457 50.6666H16.5C16.7785 50.6667 17.0514 50.7607 17.2883 50.938C17.5251 51.1152 17.7165 51.3687 17.841 51.6701L19.341 55.2996C19.4453 55.5515 19.4998 55.8292 19.5 56.1108V59.7404C19.5 60.2217 19.342 60.6833 19.0607 61.0236C18.7794 61.3639 18.3978 61.5551 18 61.5551H15V57.9256H16.5V56.5391L15.573 54.2961H11.427L10.5 56.5391V57.9256H12V61.5551H9C8.60218 61.5551 8.22064 61.3639 7.93934 61.0236C7.65803 60.6833 7.5 60.2217 7.5 59.7404V56.1108C7.50025 55.8292 7.55468 55.5515 7.659 55.2996L9.159 51.6701C9.28348 51.3687 9.47487 51.1152 9.71171 50.938C9.94856 50.7607 10.2215 50.6667 10.5 50.6666H11.349C11.1637 49.7061 11.0393 48.73 10.977 47.7466C9.5145 48.5832 8.1555 49.5432 6.978 50.5813C4.095 53.1256 3 55.5065 3 57.1453V63.3699H51V57.1453C51 55.5065 49.905 53.1256 47.022 50.5813C45.573 49.3019 43.8435 48.144 41.9895 47.1858C41.938 48.632 41.7462 50.0658 41.418 51.4578L41.406 51.5086C42.3028 52.195 42.9702 53.2426 43.2904 54.4666C43.6106 55.6906 43.563 57.012 43.156 58.1977C42.749 59.3833 42.0088 60.3568 41.0661 60.9461C40.1234 61.5355 39.0389 61.7029 38.004 61.4187C36.9692 61.1345 36.0507 60.4171 35.4107 59.393C34.7707 58.369 34.4505 57.1043 34.5064 55.8223C34.5624 54.5402 34.9911 53.3234 35.7167 52.3867C36.4423 51.4499 37.4182 50.8535 38.472 50.7029C38.6637 49.9436 38.8041 49.1667 38.892 48.38C38.9755 47.6763 39.0101 46.9655 38.9955 46.2549C38.9912 46.1191 38.9837 45.9836 38.973 45.8484C38.793 45.7812 38.613 45.7159 38.433 45.6542L37.8105 47.0806H16.5645L15.8955 45.5417V45.5399ZM39 57.9546C38.193 57.9546 37.5 57.1561 37.5 56.1127C37.5 55.071 38.193 54.2707 39 54.2707C39.807 54.2707 40.5 55.0692 40.5 56.1127C40.5 57.1543 39.807 57.9546 39 57.9546Z" fill="#7C41B8"/>
</svg>
