<svg width="47" height="45" viewBox="0 0 47 45" fill="none" xmlns="http://www.w3.org/2000/svg">
<path d="M40.2671 36.2835C39.9983 39.0164 38.6593 41.4535 36.5487 42.934C34.4011 44.4433 31.4775 44.9287 28.3127 43.732C23.3675 41.8597 17.186 38.2229 11.0378 31.2144C4.96486 24.2937 2.10796 18.2078 0.814839 13.5926C-0.0038297 10.6772 0.941597 8.20403 2.90699 6.55826C4.84372 4.93644 7.72185 4.14851 10.8022 4.37941C11.5684 4.43669 12.3285 4.64249 13.0302 4.98259C13.7319 5.3227 14.3584 5.78901 14.8664 6.34932L18.5907 10.4605C19.7373 11.725 20.3797 13.2741 20.4004 14.8245C20.4212 16.375 19.819 17.8234 18.7038 18.9049L17.3782 20.189C16.7371 20.8124 16.6103 21.5727 16.9024 22.1497C17.8759 24.0867 19.5407 25.8631 21.5758 27.1853C22.2171 27.6029 23.1506 27.6577 23.9976 27.2294L25.8028 26.3167C27.2612 25.5784 29.0247 25.3745 30.7626 25.7432C32.5004 26.1118 34.0933 27.0277 35.2424 28.3191L38.9306 32.4649C39.4188 33.014 39.7887 33.635 40.0183 34.291C40.2479 34.9471 40.3326 35.6247 40.2671 36.2835ZM29.1883 41.3536C31.3126 42.1572 33.1888 41.8443 34.6371 40.8284C36.1251 39.7848 37.1853 37.9673 37.3979 35.7964C37.4296 35.4785 37.3889 35.1516 37.2781 34.8351C37.1674 34.5185 36.9888 34.2189 36.7532 33.954L33.0641 29.8106C32.375 29.0359 31.4197 28.4864 30.3774 28.265C29.3351 28.0435 28.2772 28.1654 27.4022 28.6077L25.5969 29.5203C24.0372 30.3109 21.8676 30.4179 20.0512 29.236C17.5907 27.6353 15.5242 25.4589 14.295 23.0115C13.3977 21.2227 14.0221 19.4423 15.1764 18.324L16.502 17.04C17.1717 16.3912 17.5335 15.5221 17.5213 14.5915C17.5092 13.661 17.1239 12.7313 16.4358 11.9723L12.7078 7.86238C12.2396 7.34534 11.5622 7.01703 10.8559 6.9639C8.44545 6.78234 6.32612 7.41511 4.9829 8.53904C3.66834 9.63903 3.04955 11.2332 3.60464 13.2034C4.78979 17.428 7.43991 23.1407 13.2277 29.7413C19.0362 36.353 24.7618 39.6772 29.1892 41.3512L29.1883 41.3536ZM46.3052 21.7617C46.3705 22.1048 46.2836 22.4433 46.0636 22.7029C45.8437 22.9624 45.5086 23.1217 45.1322 23.1457C44.7558 23.1697 44.3688 23.0564 44.0565 22.8308C43.7441 22.6052 43.5319 22.2858 43.4666 21.9427L43.2489 20.8056C42.5746 17.2556 40.9672 13.8182 38.564 10.7871C36.1608 7.75594 33.0333 5.22126 29.4487 3.39965L28.6223 2.97831C28.4425 2.89535 28.2796 2.78201 28.1434 2.64513C28.0072 2.50825 27.9006 2.35067 27.8299 2.18189C27.7593 2.01311 27.7261 1.83663 27.7323 1.6631C27.7386 1.48956 27.7842 1.32257 27.8663 1.17219C27.9485 1.02181 28.0655 0.891161 28.2103 0.788122C28.3551 0.685087 28.5247 0.611795 28.709 0.572674C28.8932 0.533549 29.0881 0.529407 29.2821 0.56049C29.4761 0.591577 29.665 0.657243 29.8375 0.753532L30.6622 1.17143C34.6695 3.20731 38.1658 6.04051 40.8523 9.4288C43.5389 12.8171 45.3357 16.6597 46.0893 20.6281L46.3052 21.7617ZM37.9031 21.5692C38.277 21.5336 38.6046 21.3637 38.8139 21.0968C39.0232 20.8299 39.0971 20.4878 39.0192 20.1459L38.9356 19.7733C38.3852 17.3455 37.2648 15.0009 35.6519 12.9015C34.039 10.8021 31.972 8.998 29.5939 7.61394L28.9094 7.21716C28.7432 7.11565 28.5595 7.04315 28.3689 7.00394C28.1784 6.96472 27.9849 6.95959 27.7999 6.98882C27.6149 7.01806 27.4421 7.08109 27.2916 7.17419C27.1411 7.26729 27.016 7.38858 26.9237 7.53094C26.8313 7.6733 26.7736 7.83385 26.7539 8.00313C26.7342 8.17242 26.7529 8.34702 26.8089 8.51667C26.865 8.68633 26.9572 8.8476 27.0801 8.991C27.2031 9.13441 27.3543 9.25705 27.5249 9.35171L28.2085 9.75084C30.2205 10.9213 31.9696 12.447 33.3346 14.2227C34.6997 15.9983 35.6484 17.9815 36.115 20.0353L36.2013 20.4089C36.2396 20.5784 36.314 20.7427 36.4203 20.8926C36.5267 21.0425 36.6628 21.175 36.8209 21.2825C36.979 21.39 37.1561 21.4705 37.3419 21.5193C37.5278 21.5681 37.7188 21.5842 37.9041 21.5668L37.9031 21.5692Z" fill="white"/>
</svg>
