<svg width="52" height="59" viewBox="0 0 52 59" fill="none" xmlns="http://www.w3.org/2000/svg">
<path d="M16.2 27.2668C13.2827 27.2668 10.4848 26.0903 8.42187 23.9962C6.35897 21.902 5.20005 19.0617 5.20005 16.1001V7.1668C5.20005 6.57448 5.43183 6.00642 5.84441 5.58759C6.25699 5.16876 6.81657 4.93346 7.40005 4.93346H9.60005C10.1835 4.93346 10.7431 4.69817 11.1557 4.27934C11.5683 3.8605 11.8 3.29245 11.8 2.70013C11.8 2.10781 11.5683 1.53976 11.1557 1.12092C10.7431 0.702094 10.1835 0.466797 9.60005 0.466797H7.40005C5.64962 0.466797 3.97088 1.17269 2.73314 2.42918C1.4954 3.68568 0.800049 5.38985 0.800049 7.1668V16.1001C0.802877 18.6232 1.40895 21.1079 2.56621 23.3408C3.72347 25.5737 5.39733 27.488 7.44405 28.9195C9.41047 30.6794 11.0052 32.8256 12.132 35.2284C13.2588 37.6313 13.8943 40.2411 14 42.9001C14 47.0463 15.6225 51.0227 18.5106 53.9546C21.3987 56.8864 25.3157 58.5335 29.4 58.5335C33.4844 58.5335 37.4014 56.8864 40.2895 53.9546C43.1775 51.0227 44.8 47.0463 44.8 42.9001V40.3541C46.8739 39.8105 48.6813 38.5178 49.8834 36.7182C51.0855 34.9187 51.5998 32.7358 51.3299 30.5788C51.06 28.4218 50.0245 26.4388 48.4173 25.0015C46.8102 23.5641 44.7419 22.7711 42.6 22.7711C40.4582 22.7711 38.3898 23.5641 36.7827 25.0015C35.1756 26.4388 34.1401 28.4218 33.8702 30.5788C33.6003 32.7358 34.1146 34.9187 35.3167 36.7182C36.5188 38.5178 38.3262 39.8105 40.4 40.3541V42.9001C40.4 45.8617 39.2411 48.702 37.1782 50.7962C35.1153 52.8903 32.3174 54.0668 29.4 54.0668C26.4827 54.0668 23.6848 52.8903 21.6219 50.7962C19.559 48.702 18.4 45.8617 18.4 42.9001C18.5114 40.2378 19.1537 37.626 20.2882 35.2229C21.4226 32.8199 23.0256 30.6754 25 28.9195C27.0386 27.4831 28.7039 25.5665 29.8534 23.3339C31.0028 21.1014 31.6021 18.6192 31.6 16.1001V7.1668C31.6 5.38985 30.9047 3.68568 29.6669 2.42918C28.4292 1.17269 26.7505 0.466797 25 0.466797H22.8C22.2166 0.466797 21.657 0.702094 21.2444 1.12092C20.8318 1.53976 20.6 2.10781 20.6 2.70013C20.6 3.29245 20.8318 3.8605 21.2444 4.27934C21.657 4.69817 22.2166 4.93346 22.8 4.93346H25C25.5835 4.93346 26.1431 5.16876 26.5557 5.58759C26.9683 6.00642 27.2 6.57448 27.2 7.1668V16.1001C27.2 17.5666 26.9155 19.0186 26.3627 20.3734C25.8099 21.7282 24.9997 22.9592 23.9782 23.9962C22.9568 25.0331 21.7441 25.8556 20.4096 26.4168C19.075 26.978 17.6446 27.2668 16.2 27.2668M42.6 36.2001C41.4331 36.2001 40.3139 35.7295 39.4888 34.8919C38.6636 34.0542 38.2 32.9181 38.2 31.7335C38.2 30.5488 38.6636 29.4127 39.4888 28.5751C40.3139 27.7374 41.4331 27.2668 42.6 27.2668C43.767 27.2668 44.8861 27.7374 45.7113 28.5751C46.5365 29.4127 47 30.5488 47 31.7335C47 32.9181 46.5365 34.0542 45.7113 34.8919C44.8861 35.7295 43.767 36.2001 42.6 36.2001Z" fill="#7C41B8"/>
</svg>
